Normalized EMG Linear Envelopes																
nRows=58																
nColumns=17																
																
endheader																
time	        VM	        VL	        RF	       GRA	        TA	   ADDLONG	   SEMIMEM	      BFLH	        GM	        GL	       TFL	   GLUTMAX	   GLUTMED	      PIRI	    OBTINT	        QF
0	0	0	0	0.00073	0	0.004875	0	0	0	0	0	0	0.022197	0	0	0
0.0005	0	0	0	0.001325	0	0.005271	0	0	0	0	0	0	0.023851	0	0	0
0.001	0	0	0	0.001939	0	0.005677	0	0	0	0	0	0	0.025547	0	0	0
0.0015	0	0	0	0.002572	0	0.006095	0	0	0	0	0	0	0.027287	0	0	0
0.002	0	0	0	0.003226	0	0.006522	0	0	0	0	0	0	0.029069	0	0	0
0.0025	0	0	0	0.003899	0	0.006961	0	0	0	0	0	0	0.030896	0	0	0
0.003	0	0	0	0.004594	0	0.007411	0	0	0	0	0	0	0.032767	0	0	0
0.0035	0	0.000533	0	0.005309	0	0.007871	0	0	0	0	0	0	0.034683	0	0	0
0.004	0	0.002318	0	0.006045	0	0.008343	0	0	0	0	0	0	0.036644	0	0	0
0.0045	0	0.004161	0	0.006803	0	0.008826	0	0	0	0	0	0	0.038651	0	0	0
0.005	0	0.006065	0	0.007583	0	0.00932	0	0	0	0	0	0	0.040704	0	0	0
0.0055	0	0.008029	0	0.008384	0	0.009826	0	0	0	0	0.00016	0.000755	0.042803	0	0	0
0.006	0	0.010056	0	0.009208	0	0.010343	0	0	0	0	0.000345	0.002036	0.04495	0	0	0
0.0065	0.000228	0.012145	0	0.010055	0	0.010872	0	0	0	0	0.000537	0.003359	0.047143	0	0	0
0.007	0.001609	0.014298	0	0.010925	0	0.011413	0	0	0	0	0.000734	0.004725	0.049384	0	0	0
0.0075	0.003036	0.016515	0	0.011818	0	0.011966	0.000109	0	0	0	0.000938	0.006134	0.051674	0	0	0
0.008	0.00451	0.018799	0	0.012734	0	0.012531	0.000504	0	0	0	0.001148	0.007588	0.054011	0	0	0
0.0085	0.006031	0.021149	0	0.013675	0	0.013107	0.000912	0	0	0	0.001364	0.009086	0.056398	0	0	0
0.009	0.0076	0.023566	0	0.014639	0.000095	0.013696	0.001333	0	0	0	0.001587	0.01063	0.058833	0	0	0
0.0095	0.009217	0.026052	0	0.015628	0.000271	0.014297	0.001768	0	0	0	0.001817	0.01222	0.061317	0	0	0
0.01	0.010884	0.028607	0	0.016641	0.000454	0.01491	0.002216	0	0	0	0.002053	0.013857	0.063851	0	0	0
0.0105	0.012601	0.031232	0	0.01768	0.000642	0.015536	0.002678	0	0	0	0.002296	0.015541	0.066435	0	0	0
0.011	0.014369	0.033929	0	0.018743	0.000836	0.016174	0.003155	0	0	0	0.002546	0.017274	0.069069	0	0	0
0.0115	0.016189	0.036698	0	0.019832	0.001036	0.016825	0.003645	0	0	0	0.002804	0.019055	0.071753	0	0	0
0.012	0.018061	0.03954	0	0.020947	0.001243	0.017488	0.00415	0	0	0	0.003068	0.020886	0.074487	0	0	0
0.0125	0.019987	0.042455	0.000205	0.022087	0.001456	0.018163	0.00467	0	0	0	0.003339	0.022768	0.077272	0	0	0
0.013	0.021966	0.045445	0.00086	0.023254	0.001675	0.018852	0.005205	0	0	0	0.003618	0.024699	0.080108	0	0	0
0.0135	0.024	0.048511	0.001535	0.024447	0.0019	0.019552	0.005755	0	0	0	0.003904	0.026683	0.082995	0	0	0
0.014	0.026088	0.051653	0.002233	0.025666	0.002132	0.020266	0.006321	0	0	0	0.004198	0.028718	0.085932	0	0	0
0.0145	0.028233	0.054872	0.002953	0.026912	0.002371	0.020993	0.006902	0.000432	0	0	0.004499	0.030806	0.088921	0	0	0
0.015	0.030435	0.058169	0.003696	0.028186	0.002617	0.021732	0.007498	0.001072	0	0	0.004808	0.032947	0.09196	0	0	0
0.0155	0.032694	0.061545	0.004462	0.029486	0.002869	0.022484	0.008111	0.001734	0	0	0.005125	0.035142	0.095051	0	0	0
0.016	0.03501	0.065	0.005251	0.030814	0.003128	0.023248	0.00874	0.002417	0	0	0.005449	0.037392	0.098193	0	0	0
0.0165	0.037386	0.068536	0.006064	0.03217	0.003395	0.024026	0.009385	0.003121	0	0	0.005781	0.039696	0.101385	0	0	0
0.017	0.03982	0.072153	0.006901	0.033553	0.003668	0.024816	0.010046	0.003848	0	0	0.006122	0.042056	0.104629	0	0	0
0.0175	0.042315	0.075851	0.007763	0.034964	0.003949	0.025619	0.010725	0.004597	0	0	0.00647	0.044473	0.107923	0	0	0
0.018	0.04487	0.079632	0.008649	0.036403	0.004236	0.026435	0.01142	0.005369	0	0	0.006826	0.046945	0.111269	0	0	0
0.0185	0.047486	0.083495	0.00956	0.037871	0.004532	0.027264	0.012132	0.006164	0	0.000655	0.007191	0.049476	0.114664	0	0	0
0.019	0.050164	0.087443	0.010497	0.039366	0.004834	0.028105	0.012862	0.006982	0	0.001927	0.007564	0.052063	0.118111	0	0	0
0.0195	0.052904	0.091474	0.011459	0.04089	0.005144	0.028959	0.013609	0.007824	0	0.00324	0.007945	0.054709	0.121607	0	0	0
0.02	0.055707	0.095591	0.012447	0.042443	0.005462	0.029825	0.014374	0.00869	0	0.004595	0.008335	0.057414	0.125153	0	0	0
0.0205	0.058574	0.099793	0.013462	0.044024	0.005787	0.030704	0.015156	0.00958	0	0.005994	0.008733	0.060178	0.128749	0	0	0
0.021	0.061505	0.104081	0.014504	0.045634	0.00612	0.031596	0.015956	0.010495	0	0.007436	0.00914	0.063001	0.132394	0	0	0
0.0215	0.0645	0.108455	0.015573	0.047273	0.006461	0.032499	0.016775	0.011436	0	0.008924	0.009556	0.065885	0.136088	0	0	0
0.022	0.06756	0.112916	0.016669	0.048941	0.00681	0.033416	0.017611	0.012401	0	0.010456	0.00998	0.068829	0.13983	0	0	0
0.0225	0.070685	0.117465	0.017792	0.050637	0.007167	0.034344	0.018466	0.013392	0.000516	0.012034	0.010413	0.071834	0.14362	0	0	0
0.023	0.073877	0.122101	0.018944	0.052362	0.007532	0.035284	0.01934	0.014409	0.001547	0.013659	0.010854	0.0749	0.147458	0	0	0
0.0235	0.077134	0.126826	0.020124	0.054117	0.007904	0.036237	0.020232	0.015453	0.002612	0.015331	0.011305	0.078027	0.151342	0	0	0
0.024	0.080459	0.131639	0.021333	0.0559	0.008285	0.037201	0.021143	0.016523	0.003711	0.017052	0.011764	0.081216	0.155273	0	0	0
0.0245	0.083851	0.13654	0.02257	0.057712	0.008675	0.038177	0.022073	0.017619	0.004845	0.01882	0.012232	0.084468	0.159249	0	0	0
0.025	0.08731	0.141531	0.023837	0.059553	0.009072	0.039164	0.023022	0.018744	0.006015	0.020638	0.012709	0.087782	0.163271	0	0	0
0.0255	0.090837	0.146611	0.025133	0.061422	0.009478	0.040163	0.02399	0.019895	0.007221	0.022505	0.013195	0.091158	0.167336	0	0	0
0.026	0.094432	0.15178	0.026458	0.063321	0.009892	0.041173	0.024977	0.021074	0.008464	0.024424	0.013691	0.094598	0.171445	0	0	0
0.0265	0.098096	0.157038	0.027814	0.065247	0.010315	0.042194	0.025984	0.022281	0.009744	0.026393	0.014195	0.098101	0.175597	0	0	0
0.027	0.101828	0.162386	0.029199	0.067203	0.010746	0.043226	0.02701	0.023517	0.011062	0.028414	0.014708	0.101667	0.17979	0	0	0
0.0275	0.10563	0.167824	0.030616	0.069187	0.011186	0.044269	0.028056	0.024781	0.012418	0.030487	0.01523	0.105296	0.184024	0	0	0
0.028	0.1095	0.173351	0.032062	0.071198	0.011634	0.045321	0.029121	0.026074	0.013813	0.032613	0.015762	0.108989	0.188298	0	0	0
0.0285	0.11344	0.178968	0.03354	0.073238	0.012091	0.046384	0.030206	0.027396	0.015248	0.034793	0.016303	0.112745	0.192611	0	0	0
